<svg xmlns="http://www.w3.org/2000/svg" xmlns:xlink="http://www.w3.org/1999/xlink" width="500" zoomAndPan="magnify" viewBox="0 0 375 374.999991" height="500" preserveAspectRatio="xMidYMid meet" version="1.0"><defs><g/></defs><path fill="#f89e1d" d="M 262.320312 80.171875 C 212.445312 82.085938 150.882812 92.835938 112.6875 102.914062 C 104.3125 105.128906 98.644531 108.953125 100.636719 116.011719 C 105.703125 134.53125 110.773438 153.050781 115.839844 171.574219 C 117.832031 178.636719 124.644531 184.210938 131.0625 184.585938 C 133.101562 184.699219 135.136719 184.851562 137.175781 185.027344 C 136.367188 193.855469 133.894531 205 126.882812 210.992188 C 126.882812 210.992188 154.402344 198.554688 167.304688 189.378906 C 192.851562 194.167969 218.402344 200.765625 243.945312 201.746094 C 250.363281 202.003906 257.175781 193.179688 259.167969 182.625 C 264.234375 154.84375 269.308594 127.0625 274.371094 99.28125 C 276.367188 88.730469 270.972656 79.828125 262.320312 80.171875 " fill-opacity="1" fill-rule="nonzero"/><path fill="#ffffff" d="M 170.417969 138.085938 C 170.417969 143.117188 166.339844 147.195312 161.308594 147.195312 C 156.277344 147.195312 152.199219 143.117188 152.199219 138.085938 C 152.199219 133.058594 156.277344 128.984375 161.308594 128.984375 C 166.339844 128.984375 170.417969 133.058594 170.417969 138.085938 " fill-opacity="1" fill-rule="nonzero"/><path fill="#ffffff" d="M 196.621094 138.085938 C 196.621094 143.117188 192.542969 147.195312 187.511719 147.195312 C 182.480469 147.195312 178.402344 143.117188 178.402344 138.085938 C 178.402344 133.058594 182.480469 128.984375 187.511719 128.984375 C 192.542969 128.984375 196.621094 133.058594 196.621094 138.085938 " fill-opacity="1" fill-rule="nonzero"/><path fill="#ffffff" d="M 222.824219 138.085938 C 222.824219 143.117188 218.746094 147.195312 213.714844 147.195312 C 208.683594 147.195312 204.605469 143.117188 204.605469 138.085938 C 204.605469 133.058594 208.683594 128.984375 213.714844 128.984375 C 218.746094 128.984375 222.824219 133.058594 222.824219 138.085938 " fill-opacity="1" fill-rule="nonzero"/><path fill="#fbc519" d="M 141.617188 152.195312 C 141.160156 137.921875 145.480469 125.925781 157.558594 117.59375 C 178.214844 103.347656 203.367188 100.769531 227.789062 102.023438 C 235.601562 102.421875 243.40625 103.144531 251.222656 103.429688 C 254.386719 103.542969 257.550781 103.242188 260.714844 103.449219 C 264.097656 103.671875 266.539062 104.457031 266.84375 100.09375 C 267.050781 97.078125 266.859375 93.363281 265.660156 90.582031 C 263.871094 86.4375 260.058594 83.566406 255.417969 83.742188 C 208.878906 85.527344 151.441406 95.558594 115.804688 104.964844 C 107.988281 107.027344 102.699219 110.59375 104.558594 117.183594 C 109.285156 134.457031 114.015625 151.742188 118.746094 169.023438 C 120.605469 175.613281 126.964844 180.8125 132.949219 181.164062 C 134.851562 181.265625 136.75 181.410156 138.652344 181.574219 C 137.898438 189.8125 142.015625 164.664062 141.617188 152.195312 " fill-opacity="1" fill-rule="nonzero"/><g fill="#2e2e2e" fill-opacity="1"><g transform="translate(89.619652, 260.392409)"><g><path d="M 34.859375 -5.328125 C 34.765625 -4.472656 34.628906 -3.640625 34.453125 -2.828125 C 34.273438 -2.015625 34.054688 -1.289062 33.796875 -0.65625 C 33.535156 -0.0195312 33.195312 0.484375 32.78125 0.859375 C 32.375 1.234375 31.910156 1.421875 31.390625 1.421875 C 30.867188 1.421875 30.394531 1.019531 29.96875 0.21875 C 29.550781 -0.582031 29.15625 -1.640625 28.78125 -2.953125 C 28.40625 -4.273438 28.0625 -5.765625 27.75 -7.421875 C 27.445312 -9.078125 27.171875 -10.757812 26.921875 -12.46875 C 26.679688 -14.1875 26.476562 -15.859375 26.3125 -17.484375 C 26.15625 -19.109375 26.023438 -20.523438 25.921875 -21.734375 C 25.734375 -20.492188 25.507812 -19.109375 25.25 -17.578125 C 24.988281 -16.046875 24.675781 -14.488281 24.3125 -12.90625 C 23.957031 -11.332031 23.566406 -9.785156 23.140625 -8.265625 C 22.722656 -6.753906 22.269531 -5.40625 21.78125 -4.21875 C 21.289062 -3.03125 20.769531 -2.078125 20.21875 -1.359375 C 19.664062 -0.648438 19.078125 -0.296875 18.453125 -0.296875 C 17.898438 -0.296875 17.347656 -0.671875 16.796875 -1.421875 C 16.242188 -2.171875 15.707031 -3.15625 15.1875 -4.375 C 14.664062 -5.59375 14.175781 -6.945312 13.71875 -8.4375 C 13.257812 -9.9375 12.832031 -11.441406 12.4375 -12.953125 C 12.050781 -14.472656 11.710938 -15.90625 11.421875 -17.25 C 11.128906 -18.601562 10.90625 -19.738281 10.75 -20.65625 C 10.75 -19.96875 10.738281 -19.207031 10.71875 -18.375 C 10.695312 -17.550781 10.6875 -16.960938 10.6875 -16.609375 C 10.6875 -16.441406 10.675781 -15.898438 10.65625 -14.984375 C 10.644531 -14.078125 10.59375 -12.988281 10.5 -11.71875 C 10.40625 -10.445312 10.257812 -9.085938 10.0625 -7.640625 C 9.863281 -6.191406 9.578125 -4.847656 9.203125 -3.609375 C 8.828125 -2.378906 8.363281 -1.335938 7.8125 -0.484375 C 7.257812 0.359375 6.578125 0.8125 5.765625 0.875 C 5.109375 0.582031 4.5625 0.0859375 4.125 -0.609375 C 3.6875 -1.304688 3.320312 -2.128906 3.03125 -3.078125 C 2.738281 -4.023438 2.507812 -5.035156 2.34375 -6.109375 C 2.175781 -7.179688 2.046875 -8.226562 1.953125 -9.25 C 1.859375 -10.28125 1.800781 -11.234375 1.78125 -12.109375 C 1.769531 -12.984375 1.765625 -13.703125 1.765625 -14.265625 C 1.765625 -15.234375 1.816406 -16.457031 1.921875 -17.9375 C 2.035156 -19.425781 2.222656 -20.984375 2.484375 -22.609375 C 2.742188 -24.234375 3.085938 -25.859375 3.515625 -27.484375 C 3.941406 -29.117188 4.453125 -30.578125 5.046875 -31.859375 C 5.648438 -33.148438 6.347656 -34.203125 7.140625 -35.015625 C 7.941406 -35.828125 8.863281 -36.234375 9.90625 -36.234375 C 10.394531 -36.234375 10.914062 -35.957031 11.46875 -35.40625 C 12.03125 -34.851562 12.585938 -34.128906 13.140625 -33.234375 C 13.691406 -32.335938 14.226562 -31.332031 14.75 -30.21875 C 15.269531 -29.113281 15.765625 -28 16.234375 -26.875 C 16.703125 -25.757812 17.113281 -24.6875 17.46875 -23.65625 C 17.832031 -22.632812 18.128906 -21.765625 18.359375 -21.046875 C 18.617188 -21.828125 18.941406 -22.738281 19.328125 -23.78125 C 19.722656 -24.820312 20.15625 -25.90625 20.625 -27.03125 C 21.101562 -28.15625 21.625 -29.257812 22.1875 -30.34375 C 22.757812 -31.4375 23.351562 -32.414062 23.96875 -33.28125 C 24.59375 -34.144531 25.222656 -34.84375 25.859375 -35.375 C 26.492188 -35.914062 27.132812 -36.1875 27.78125 -36.1875 C 28.925781 -36.1875 29.90625 -35.757812 30.71875 -34.90625 C 31.53125 -34.0625 32.210938 -32.960938 32.765625 -31.609375 C 33.316406 -30.265625 33.753906 -28.753906 34.078125 -27.078125 C 34.410156 -25.398438 34.664062 -23.738281 34.84375 -22.09375 C 35.019531 -20.445312 35.128906 -18.90625 35.171875 -17.46875 C 35.222656 -16.039062 35.25 -14.890625 35.25 -14.015625 C 35.25 -13.660156 35.25 -13.171875 35.25 -12.546875 C 35.25 -11.929688 35.238281 -11.234375 35.21875 -10.453125 C 35.207031 -9.671875 35.171875 -8.835938 35.109375 -7.953125 C 35.046875 -7.078125 34.960938 -6.203125 34.859375 -5.328125 Z M 34.859375 -5.328125 "/></g></g></g><g fill="#2e2e2e" fill-opacity="1"><g transform="translate(127.869687, 260.392409)"><g><path d="M 9.515625 -34.078125 C 9.515625 -33.628906 9.394531 -33.222656 9.15625 -32.859375 C 8.914062 -32.503906 8.597656 -32.1875 8.203125 -31.90625 C 7.816406 -31.632812 7.394531 -31.425781 6.9375 -31.28125 C 6.476562 -31.132812 6.054688 -31.0625 5.671875 -31.0625 C 5.015625 -31.0625 4.441406 -31.222656 3.953125 -31.546875 C 3.460938 -31.867188 3.21875 -32.375 3.21875 -33.0625 C 3.21875 -33.550781 3.335938 -33.976562 3.578125 -34.34375 C 3.828125 -34.71875 4.128906 -35.023438 4.484375 -35.265625 C 4.847656 -35.515625 5.253906 -35.703125 5.703125 -35.828125 C 6.160156 -35.960938 6.601562 -36.03125 7.03125 -36.03125 C 7.644531 -36.03125 8.210938 -35.882812 8.734375 -35.59375 C 9.253906 -35.300781 9.515625 -34.796875 9.515625 -34.078125 Z M 9.90625 -17.484375 C 9.90625 -17.023438 9.90625 -16.539062 9.90625 -16.03125 C 9.90625 -15.53125 9.890625 -15.050781 9.859375 -14.59375 C 9.828125 -14.039062 9.8125 -13.300781 9.8125 -12.375 C 9.8125 -11.445312 9.78125 -10.445312 9.71875 -9.375 C 9.65625 -8.300781 9.550781 -7.207031 9.40625 -6.09375 C 9.257812 -4.988281 9.019531 -3.976562 8.6875 -3.0625 C 8.363281 -2.15625 7.929688 -1.414062 7.390625 -0.84375 C 6.859375 -0.28125 6.1875 0.015625 5.375 0.046875 C 4.75 0.078125 4.222656 -0.164062 3.796875 -0.6875 C 3.378906 -1.207031 3.03125 -1.878906 2.75 -2.703125 C 2.476562 -3.535156 2.273438 -4.460938 2.140625 -5.484375 C 2.015625 -6.515625 1.921875 -7.507812 1.859375 -8.46875 C 1.796875 -9.425781 1.765625 -10.3125 1.765625 -11.125 C 1.765625 -11.945312 1.765625 -12.550781 1.765625 -12.9375 C 1.765625 -13.457031 1.765625 -14.195312 1.765625 -15.15625 C 1.765625 -16.125 1.796875 -17.160156 1.859375 -18.265625 C 1.921875 -19.367188 2.039062 -20.488281 2.21875 -21.625 C 2.394531 -22.769531 2.65625 -23.8125 3 -24.75 C 3.34375 -25.695312 3.789062 -26.460938 4.34375 -27.046875 C 4.894531 -27.640625 5.597656 -27.9375 6.453125 -27.9375 C 7.328125 -27.9375 7.988281 -27.492188 8.4375 -26.609375 C 8.894531 -25.734375 9.238281 -24.707031 9.46875 -23.53125 C 9.695312 -22.363281 9.828125 -21.203125 9.859375 -20.046875 C 9.890625 -18.890625 9.90625 -18.035156 9.90625 -17.484375 Z M 9.90625 -17.484375 "/></g></g></g><g fill="#2e2e2e" fill-opacity="1"><g transform="translate(140.781886, 260.392409)"><g><path d="M 15.328125 1.375 C 14.773438 1.375 14.335938 1.117188 14.015625 0.609375 C 13.691406 0.109375 13.445312 -0.460938 13.28125 -1.109375 C 13.113281 -1.765625 13.003906 -2.425781 12.953125 -3.09375 C 12.910156 -3.769531 12.890625 -4.285156 12.890625 -4.640625 C 12.890625 -5.617188 12.945312 -6.59375 13.0625 -7.5625 C 13.175781 -8.539062 13.304688 -9.519531 13.453125 -10.5 C 13.597656 -11.476562 13.726562 -12.453125 13.84375 -13.421875 C 13.957031 -14.398438 14.015625 -15.378906 14.015625 -16.359375 C 14.015625 -16.742188 14 -17.164062 13.96875 -17.625 C 13.9375 -18.082031 13.863281 -18.515625 13.75 -18.921875 C 13.632812 -19.328125 13.445312 -19.660156 13.1875 -19.921875 C 12.925781 -20.179688 12.582031 -20.3125 12.15625 -20.3125 C 11.863281 -20.3125 11.535156 -20.070312 11.171875 -19.59375 C 10.816406 -19.125 10.484375 -18.585938 10.171875 -17.984375 C 9.867188 -17.390625 9.609375 -16.789062 9.390625 -16.1875 C 9.179688 -15.582031 9.078125 -15.132812 9.078125 -14.84375 C 9.078125 -14.125 9.082031 -13.398438 9.09375 -12.671875 C 9.113281 -11.941406 9.125 -11.203125 9.125 -10.453125 L 9.125 -7.625 C 9.09375 -7.03125 9.046875 -6.425781 8.984375 -5.8125 C 8.921875 -5.195312 8.820312 -4.59375 8.6875 -4 C 8.59375 -3.414062 8.445312 -2.851562 8.25 -2.3125 C 8.050781 -1.78125 7.796875 -1.3125 7.484375 -0.90625 C 7.179688 -0.5 6.816406 -0.164062 6.390625 0.09375 C 5.972656 0.351562 5.472656 0.484375 4.890625 0.484375 C 4.234375 0.484375 3.691406 0.273438 3.265625 -0.140625 C 2.847656 -0.566406 2.507812 -1.113281 2.25 -1.78125 C 1.988281 -2.445312 1.800781 -3.195312 1.6875 -4.03125 C 1.570312 -4.863281 1.488281 -5.675781 1.4375 -6.46875 C 1.394531 -7.269531 1.378906 -8.003906 1.390625 -8.671875 C 1.410156 -9.335938 1.421875 -9.863281 1.421875 -10.25 L 1.421875 -12.546875 C 1.421875 -13.785156 1.394531 -15.003906 1.34375 -16.203125 C 1.289062 -17.410156 1.265625 -18.617188 1.265625 -19.828125 C 1.265625 -20.472656 1.269531 -21.300781 1.28125 -22.3125 C 1.300781 -23.320312 1.425781 -24.304688 1.65625 -25.265625 C 1.882812 -26.222656 2.257812 -27.046875 2.78125 -27.734375 C 3.300781 -28.421875 4.066406 -28.765625 5.078125 -28.765625 C 5.535156 -28.765625 5.941406 -28.613281 6.296875 -28.3125 C 6.660156 -28.019531 6.976562 -27.660156 7.25 -27.234375 C 7.53125 -26.816406 7.757812 -26.363281 7.9375 -25.875 C 8.113281 -25.382812 8.25 -24.960938 8.34375 -24.609375 C 8.675781 -25.066406 9.0625 -25.503906 9.5 -25.921875 C 9.9375 -26.347656 10.429688 -26.722656 10.984375 -27.046875 C 11.535156 -27.378906 12.15625 -27.640625 12.84375 -27.828125 C 13.53125 -28.023438 14.3125 -28.125 15.1875 -28.125 C 16.84375 -28.125 18.132812 -27.722656 19.0625 -26.921875 C 19.988281 -26.128906 20.671875 -25.140625 21.109375 -23.953125 C 21.554688 -22.765625 21.828125 -21.484375 21.921875 -20.109375 C 22.023438 -18.742188 22.078125 -17.507812 22.078125 -16.40625 C 22.078125 -15.851562 22.023438 -15.03125 21.921875 -13.9375 C 21.828125 -12.851562 21.671875 -11.648438 21.453125 -10.328125 C 21.242188 -9.003906 20.957031 -7.648438 20.59375 -6.265625 C 20.238281 -4.890625 19.816406 -3.628906 19.328125 -2.484375 C 18.847656 -1.347656 18.273438 -0.421875 17.609375 0.296875 C 16.941406 1.015625 16.179688 1.375 15.328125 1.375 Z M 15.328125 1.375 "/></g></g></g><g fill="#2e2e2e" fill-opacity="1"><g transform="translate(165.118083, 260.392409)"><g><path d="M 9.515625 -34.078125 C 9.515625 -33.628906 9.394531 -33.222656 9.15625 -32.859375 C 8.914062 -32.503906 8.597656 -32.1875 8.203125 -31.90625 C 7.816406 -31.632812 7.394531 -31.425781 6.9375 -31.28125 C 6.476562 -31.132812 6.054688 -31.0625 5.671875 -31.0625 C 5.015625 -31.0625 4.441406 -31.222656 3.953125 -31.546875 C 3.460938 -31.867188 3.21875 -32.375 3.21875 -33.0625 C 3.21875 -33.550781 3.335938 -33.976562 3.578125 -34.34375 C 3.828125 -34.71875 4.128906 -35.023438 4.484375 -35.265625 C 4.847656 -35.515625 5.253906 -35.703125 5.703125 -35.828125 C 6.160156 -35.960938 6.601562 -36.03125 7.03125 -36.03125 C 7.644531 -36.03125 8.210938 -35.882812 8.734375 -35.59375 C 9.253906 -35.300781 9.515625 -34.796875 9.515625 -34.078125 Z M 9.90625 -17.484375 C 9.90625 -17.023438 9.90625 -16.539062 9.90625 -16.03125 C 9.90625 -15.53125 9.890625 -15.050781 9.859375 -14.59375 C 9.828125 -14.039062 9.8125 -13.300781 9.8125 -12.375 C 9.8125 -11.445312 9.78125 -10.445312 9.71875 -9.375 C 9.65625 -8.300781 9.550781 -7.207031 9.40625 -6.09375 C 9.257812 -4.988281 9.019531 -3.976562 8.6875 -3.0625 C 8.363281 -2.15625 7.929688 -1.414062 7.390625 -0.84375 C 6.859375 -0.28125 6.1875 0.015625 5.375 0.046875 C 4.75 0.078125 4.222656 -0.164062 3.796875 -0.6875 C 3.378906 -1.207031 3.03125 -1.878906 2.75 -2.703125 C 2.476562 -3.535156 2.273438 -4.460938 2.140625 -5.484375 C 2.015625 -6.515625 1.921875 -7.507812 1.859375 -8.46875 C 1.796875 -9.425781 1.765625 -10.3125 1.765625 -11.125 C 1.765625 -11.945312 1.765625 -12.550781 1.765625 -12.9375 C 1.765625 -13.457031 1.765625 -14.195312 1.765625 -15.15625 C 1.765625 -16.125 1.796875 -17.160156 1.859375 -18.265625 C 1.921875 -19.367188 2.039062 -20.488281 2.21875 -21.625 C 2.394531 -22.769531 2.65625 -23.8125 3 -24.75 C 3.34375 -25.695312 3.789062 -26.460938 4.34375 -27.046875 C 4.894531 -27.640625 5.597656 -27.9375 6.453125 -27.9375 C 7.328125 -27.9375 7.988281 -27.492188 8.4375 -26.609375 C 8.894531 -25.734375 9.238281 -24.707031 9.46875 -23.53125 C 9.695312 -22.363281 9.828125 -21.203125 9.859375 -20.046875 C 9.890625 -18.890625 9.90625 -18.035156 9.90625 -17.484375 Z M 9.90625 -17.484375 "/></g></g></g><g fill="#2e2e2e" fill-opacity="1"><g transform="translate(178.03028, 260.392409)"><g/></g></g><g fill="#2e2e2e" fill-opacity="1"><g transform="translate(190.796015, 260.392409)"><g><path d="M 23.046875 -24.859375 C 23.046875 -24.234375 22.972656 -23.578125 22.828125 -22.890625 C 22.679688 -22.210938 22.441406 -21.582031 22.109375 -21 C 21.785156 -20.414062 21.363281 -19.925781 20.84375 -19.53125 C 20.320312 -19.144531 19.691406 -18.953125 18.953125 -18.953125 C 17.804688 -18.953125 16.957031 -19.15625 16.40625 -19.5625 C 15.851562 -19.96875 15.460938 -20.476562 15.234375 -21.09375 C 15.003906 -21.707031 14.878906 -22.363281 14.859375 -23.0625 C 14.847656 -23.769531 14.828125 -24.429688 14.796875 -25.046875 C 14.765625 -25.671875 14.65625 -26.1875 14.46875 -26.59375 C 14.289062 -27 13.910156 -27.203125 13.328125 -27.203125 C 12.679688 -27.203125 12.113281 -26.960938 11.625 -26.484375 C 11.132812 -26.015625 10.707031 -25.40625 10.34375 -24.65625 C 9.988281 -23.90625 9.6875 -23.054688 9.4375 -22.109375 C 9.195312 -21.171875 9.003906 -20.238281 8.859375 -19.3125 C 8.710938 -18.382812 8.609375 -17.503906 8.546875 -16.671875 C 8.484375 -15.847656 8.453125 -15.175781 8.453125 -14.65625 C 8.453125 -13.96875 8.472656 -13.148438 8.515625 -12.203125 C 8.566406 -11.265625 8.722656 -10.363281 8.984375 -9.5 C 9.242188 -8.632812 9.632812 -7.898438 10.15625 -7.296875 C 10.675781 -6.691406 11.425781 -6.390625 12.40625 -6.390625 C 13.050781 -6.390625 13.679688 -6.472656 14.296875 -6.640625 C 14.921875 -6.804688 15.539062 -6.992188 16.15625 -7.203125 C 16.78125 -7.410156 17.410156 -7.597656 18.046875 -7.765625 C 18.679688 -7.929688 19.320312 -8.015625 19.96875 -8.015625 C 20.71875 -8.015625 21.335938 -7.710938 21.828125 -7.109375 C 22.316406 -6.503906 22.5625 -5.828125 22.5625 -5.078125 C 22.5625 -4.035156 22.234375 -3.066406 21.578125 -2.171875 C 20.929688 -1.273438 20.125 -0.488281 19.15625 0.1875 C 18.195312 0.875 17.15625 1.410156 16.03125 1.796875 C 14.914062 2.191406 13.898438 2.390625 12.984375 2.390625 C 10.640625 2.390625 8.65625 1.859375 7.03125 0.796875 C 5.40625 -0.253906 4.085938 -1.617188 3.078125 -3.296875 C 2.066406 -4.972656 1.34375 -6.84375 0.90625 -8.90625 C 0.46875 -10.976562 0.25 -13.039062 0.25 -15.09375 C 0.25 -16.457031 0.378906 -17.953125 0.640625 -19.578125 C 0.898438 -21.203125 1.289062 -22.835938 1.8125 -24.484375 C 2.332031 -26.128906 2.988281 -27.71875 3.78125 -29.25 C 4.582031 -30.78125 5.519531 -32.128906 6.59375 -33.296875 C 7.664062 -34.472656 8.875 -35.414062 10.21875 -36.125 C 11.570312 -36.84375 13.066406 -37.203125 14.703125 -37.203125 C 16.296875 -37.203125 17.628906 -36.800781 18.703125 -36 C 19.773438 -35.207031 20.632812 -34.203125 21.28125 -32.984375 C 21.9375 -31.765625 22.394531 -30.429688 22.65625 -28.984375 C 22.914062 -27.535156 23.046875 -26.160156 23.046875 -24.859375 Z M 23.046875 -24.859375 "/></g></g></g><g fill="#2e2e2e" fill-opacity="1"><g transform="translate(215.327488, 260.392409)"><g><path d="M 23.640625 -12.640625 C 23.640625 -12.085938 23.628906 -11.265625 23.609375 -10.171875 C 23.585938 -9.085938 23.535156 -7.953125 23.453125 -6.765625 C 23.378906 -5.578125 23.273438 -4.453125 23.140625 -3.390625 C 23.015625 -2.335938 22.851562 -1.566406 22.65625 -1.078125 C 22.394531 -0.453125 22.050781 0.0820312 21.625 0.53125 C 21.207031 0.988281 20.640625 1.21875 19.921875 1.21875 C 18.816406 1.21875 18.019531 0.78125 17.53125 -0.09375 C 17.039062 -0.976562 16.710938 -2.070312 16.546875 -3.375 C 16.390625 -4.675781 16.328125 -6.085938 16.359375 -7.609375 C 16.390625 -9.140625 16.375 -10.554688 16.3125 -11.859375 C 16.25 -13.160156 16.066406 -14.25 15.765625 -15.125 C 15.472656 -16.007812 14.9375 -16.453125 14.15625 -16.453125 C 13.082031 -16.453125 12.257812 -16.28125 11.6875 -15.9375 C 11.125 -15.601562 10.71875 -15.15625 10.46875 -14.59375 C 10.226562 -14.039062 10.082031 -13.40625 10.03125 -12.6875 C 9.988281 -11.976562 9.929688 -11.234375 9.859375 -10.453125 C 9.796875 -9.703125 9.75 -8.691406 9.71875 -7.421875 C 9.6875 -6.148438 9.539062 -4.894531 9.28125 -3.65625 C 9.019531 -2.425781 8.585938 -1.363281 7.984375 -0.46875 C 7.378906 0.425781 6.492188 0.875 5.328125 0.875 C 4.609375 0.875 4.03125 0.597656 3.59375 0.046875 C 3.15625 -0.503906 2.804688 -1.21875 2.546875 -2.09375 C 2.285156 -2.976562 2.097656 -3.957031 1.984375 -5.03125 C 1.867188 -6.101562 1.800781 -7.148438 1.78125 -8.171875 C 1.769531 -9.203125 1.769531 -10.140625 1.78125 -10.984375 C 1.800781 -11.828125 1.8125 -12.460938 1.8125 -12.890625 C 1.8125 -13.546875 1.832031 -14.617188 1.875 -16.109375 C 1.925781 -17.609375 2.03125 -19.273438 2.1875 -21.109375 C 2.351562 -22.953125 2.566406 -24.847656 2.828125 -26.796875 C 3.085938 -28.753906 3.429688 -30.539062 3.859375 -32.15625 C 4.285156 -33.769531 4.796875 -35.078125 5.390625 -36.078125 C 5.992188 -37.085938 6.703125 -37.578125 7.515625 -37.546875 C 8.035156 -37.515625 8.484375 -37.285156 8.859375 -36.859375 C 9.234375 -36.441406 9.539062 -35.898438 9.78125 -35.234375 C 10.03125 -34.566406 10.234375 -33.84375 10.390625 -33.0625 C 10.554688 -32.28125 10.679688 -31.503906 10.765625 -30.734375 C 10.847656 -29.972656 10.894531 -29.265625 10.90625 -28.609375 C 10.925781 -27.960938 10.9375 -27.457031 10.9375 -27.09375 C 10.9375 -26.25 10.921875 -25.40625 10.890625 -24.5625 C 10.859375 -23.71875 10.8125 -22.867188 10.75 -22.015625 C 11.488281 -23.023438 12.484375 -23.851562 13.734375 -24.5 C 14.992188 -25.15625 16.257812 -25.484375 17.53125 -25.484375 C 19.15625 -25.484375 20.382812 -25.035156 21.21875 -24.140625 C 22.050781 -23.242188 22.644531 -22.132812 23 -20.8125 C 23.351562 -19.5 23.546875 -18.101562 23.578125 -16.625 C 23.617188 -15.144531 23.640625 -13.816406 23.640625 -12.640625 Z M 23.640625 -12.640625 "/></g></g></g><g fill="#2e2e2e" fill-opacity="1"><g transform="translate(241.958242, 260.392409)"><g><path d="M 22.21875 -6.890625 C 22.21875 -6.296875 22.191406 -5.523438 22.140625 -4.578125 C 22.097656 -3.640625 21.960938 -2.722656 21.734375 -1.828125 C 21.503906 -0.929688 21.144531 -0.160156 20.65625 0.484375 C 20.164062 1.140625 19.484375 1.46875 18.609375 1.46875 C 17.398438 1.46875 16.46875 1.078125 15.8125 0.296875 C 15.164062 -0.484375 14.859375 -1.460938 14.890625 -2.640625 C 13.847656 -1.722656 12.664062 -1.003906 11.34375 -0.484375 C 10.03125 0.0351562 8.691406 0.296875 7.328125 0.296875 C 6.378906 0.296875 5.484375 0.0664062 4.640625 -0.390625 C 3.796875 -0.847656 3.046875 -1.429688 2.390625 -2.140625 C 1.742188 -2.859375 1.222656 -3.664062 0.828125 -4.5625 C 0.441406 -5.457031 0.25 -6.347656 0.25 -7.234375 C 0.25 -8.796875 0.726562 -10.160156 1.6875 -11.328125 C 2.644531 -12.503906 3.820312 -13.503906 5.21875 -14.328125 C 6.625 -15.160156 8.113281 -15.820312 9.6875 -16.3125 C 11.269531 -16.800781 12.679688 -17.125 13.921875 -17.28125 C 13.921875 -17.445312 13.925781 -17.59375 13.9375 -17.71875 C 13.957031 -17.851562 13.96875 -18.003906 13.96875 -18.171875 C 13.96875 -19.171875 13.691406 -19.976562 13.140625 -20.59375 C 12.585938 -21.21875 11.804688 -21.53125 10.796875 -21.53125 C 9.984375 -21.53125 9.28125 -21.390625 8.6875 -21.109375 C 8.101562 -20.835938 7.550781 -20.53125 7.03125 -20.1875 C 6.507812 -19.84375 5.988281 -19.53125 5.46875 -19.25 C 4.945312 -18.976562 4.363281 -18.84375 3.71875 -18.84375 C 3 -18.84375 2.382812 -19.070312 1.875 -19.53125 C 1.375 -19.988281 1.125 -20.578125 1.125 -21.296875 C 1.125 -22.367188 1.441406 -23.34375 2.078125 -24.21875 C 2.710938 -25.09375 3.507812 -25.832031 4.46875 -26.4375 C 5.425781 -27.039062 6.46875 -27.515625 7.59375 -27.859375 C 8.71875 -28.203125 9.75 -28.375 10.6875 -28.375 C 11.570312 -28.375 12.453125 -28.265625 13.328125 -28.046875 C 14.210938 -27.835938 15.046875 -27.515625 15.828125 -27.078125 C 16.609375 -26.640625 17.3125 -26.101562 17.9375 -25.46875 C 18.570312 -24.832031 19.085938 -24.09375 19.484375 -23.25 C 20.066406 -22.039062 20.535156 -20.757812 20.890625 -19.40625 C 21.253906 -18.0625 21.53125 -16.679688 21.71875 -15.265625 C 21.914062 -13.847656 22.046875 -12.429688 22.109375 -11.015625 C 22.179688 -9.597656 22.21875 -8.222656 22.21875 -6.890625 Z M 14.40625 -8.453125 L 14.265625 -11.765625 C 14.191406 -11.765625 14.125 -11.769531 14.0625 -11.78125 C 14 -11.800781 13.9375 -11.8125 13.875 -11.8125 C 13.445312 -11.8125 12.914062 -11.707031 12.28125 -11.5 C 11.644531 -11.289062 11.035156 -11 10.453125 -10.625 C 9.867188 -10.25 9.367188 -9.832031 8.953125 -9.375 C 8.546875 -8.914062 8.34375 -8.441406 8.34375 -7.953125 C 8.34375 -7.503906 8.503906 -7.195312 8.828125 -7.03125 C 9.160156 -6.863281 9.539062 -6.78125 9.96875 -6.78125 C 10.675781 -6.78125 11.4375 -6.96875 12.25 -7.34375 C 13.070312 -7.71875 13.789062 -8.085938 14.40625 -8.453125 Z M 14.40625 -8.453125 "/></g></g></g><g fill="#2e2e2e" fill-opacity="1"><g transform="translate(266.636177, 260.392409)"><g><path d="M 12.84375 1.765625 C 10.53125 1.765625 8.726562 1.460938 7.4375 0.859375 C 6.15625 0.253906 5.195312 -0.597656 4.5625 -1.703125 C 3.925781 -2.816406 3.539062 -4.15625 3.40625 -5.71875 C 3.28125 -7.28125 3.21875 -9.019531 3.21875 -10.9375 C 3.21875 -12.46875 3.265625 -14.003906 3.359375 -15.546875 C 3.460938 -17.097656 3.613281 -18.753906 3.8125 -20.515625 C 3.351562 -20.515625 2.992188 -20.503906 2.734375 -20.484375 C 2.472656 -20.460938 2.257812 -20.453125 2.09375 -20.453125 C 1.050781 -20.453125 0.148438 -20.679688 -0.609375 -21.140625 C -1.378906 -21.597656 -1.765625 -22.300781 -1.765625 -23.25 C -1.765625 -23.832031 -1.539062 -24.347656 -1.09375 -24.796875 C -0.65625 -25.253906 -0.0976562 -25.644531 0.578125 -25.96875 C 1.265625 -26.300781 2.003906 -26.5625 2.796875 -26.75 C 3.597656 -26.945312 4.359375 -27.082031 5.078125 -27.15625 C 5.078125 -28.0625 5.140625 -29.066406 5.265625 -30.171875 C 5.398438 -31.285156 5.640625 -32.320312 5.984375 -33.28125 C 6.328125 -34.238281 6.789062 -35.039062 7.375 -35.6875 C 7.957031 -36.34375 8.707031 -36.671875 9.625 -36.671875 C 10.144531 -36.671875 10.609375 -36.515625 11.015625 -36.203125 C 11.421875 -35.898438 11.753906 -35.507812 12.015625 -35.03125 C 12.273438 -34.5625 12.46875 -34.03125 12.59375 -33.4375 C 12.726562 -32.851562 12.796875 -32.285156 12.796875 -31.734375 C 12.796875 -31.085938 12.742188 -30.421875 12.640625 -29.734375 C 12.546875 -29.054688 12.367188 -28.210938 12.109375 -27.203125 C 12.660156 -27.265625 13.035156 -27.300781 13.234375 -27.3125 C 13.429688 -27.332031 13.609375 -27.34375 13.765625 -27.34375 C 14.316406 -27.34375 14.894531 -27.289062 15.5 -27.1875 C 16.101562 -27.09375 16.65625 -26.929688 17.15625 -26.703125 C 17.664062 -26.484375 18.082031 -26.1875 18.40625 -25.8125 C 18.726562 -25.4375 18.890625 -24.988281 18.890625 -24.46875 C 18.890625 -23.875 18.65625 -23.347656 18.1875 -22.890625 C 17.71875 -22.441406 17.125 -22.050781 16.40625 -21.71875 C 15.6875 -21.394531 14.921875 -21.144531 14.109375 -20.96875 C 13.296875 -20.789062 12.53125 -20.671875 11.8125 -20.609375 C 11.625 -19.273438 11.488281 -18.046875 11.40625 -16.921875 C 11.320312 -15.796875 11.234375 -14.664062 11.140625 -13.53125 C 11.066406 -12.976562 11.003906 -12.414062 10.953125 -11.84375 C 10.910156 -11.269531 10.890625 -10.691406 10.890625 -10.109375 C 10.890625 -9.679688 10.90625 -9.179688 10.9375 -8.609375 C 10.96875 -8.046875 11.082031 -7.503906 11.28125 -6.984375 C 11.476562 -6.460938 11.785156 -6.015625 12.203125 -5.640625 C 12.628906 -5.265625 13.21875 -5.078125 13.96875 -5.078125 C 14.425781 -5.078125 14.894531 -5.117188 15.375 -5.203125 C 15.863281 -5.285156 16.351562 -5.328125 16.84375 -5.328125 C 17.6875 -5.328125 18.296875 -5.03125 18.671875 -4.4375 C 19.046875 -3.851562 19.234375 -3.109375 19.234375 -2.203125 C 19.234375 -1.515625 19.03125 -0.914062 18.625 -0.40625 C 18.21875 0.09375 17.703125 0.492188 17.078125 0.796875 C 16.460938 1.109375 15.773438 1.347656 15.015625 1.515625 C 14.253906 1.679688 13.53125 1.765625 12.84375 1.765625 Z M 12.84375 1.765625 "/></g></g></g><g fill="#2e2e2e" fill-opacity="1"><g transform="translate(89.993458, 289.295928)"><g><path d="M 3.039062 0 L 6.878906 0 C 10.085938 0 11.703125 -1.746094 11.703125 -3.953125 C 11.703125 -5.492188 10.886719 -6.628906 9.101562 -6.800781 L 9.101562 -6.878906 C 10.429688 -7.3125 11.339844 -8.492188 11.339844 -10.183594 C 11.339844 -12.082031 10.105469 -13.164062 6.496094 -13.164062 L 3.078125 -13.164062 C 2.03125 -13.164062 1.460938 -12.578125 1.460938 -11.492188 C 1.460938 -6.363281 1.445312 -3.34375 1.425781 -1.613281 C 1.425781 -0.570312 1.996094 0 3.039062 0 Z M 4.804688 -7.863281 C 4.804688 -9.234375 4.804688 -10.085938 4.824219 -10.886719 L 5.910156 -10.886719 C 7.277344 -10.886719 7.980469 -10.503906 7.980469 -9.59375 C 7.980469 -8.664062 7.351562 -7.863281 5.394531 -7.863281 Z M 4.824219 -2.261719 C 4.804688 -3.058594 4.804688 -3.855469 4.804688 -4.65625 L 4.804688 -6.097656 L 6.191406 -6.097656 C 7.695312 -6.097656 8.414062 -5.355469 8.414062 -4.253906 C 8.414062 -2.984375 7.503906 -2.261719 5.910156 -2.261719 Z M 4.824219 -2.261719 "/></g></g></g><g fill="#2e2e2e" fill-opacity="1"><g transform="translate(102.549892, 289.295928)"><g><path d="M 5.585938 0.191406 C 7.921875 0.191406 9.347656 -0.476562 9.800781 -1.878906 C 10.085938 -2.734375 9.382812 -3.265625 8.398438 -3.265625 C 7.578125 -3.265625 7.503906 -2.734375 6.78125 -2.261719 C 6.515625 -2.109375 6.117188 -2.015625 5.605469 -2.015625 C 4.617188 -2.015625 3.894531 -2.488281 3.820312 -4.445312 L 9.878906 -4.445312 C 10.03125 -4.445312 10.144531 -4.558594 10.164062 -4.75 C 10.523438 -8.28125 9.117188 -10.675781 5.585938 -10.675781 C 2.296875 -10.675781 0.683594 -8.910156 0.683594 -5.414062 C 0.683594 -1.671875 2.183594 0.191406 5.585938 0.191406 Z M 3.835938 -6.230469 C 3.800781 -7.769531 4.445312 -8.511719 5.433594 -8.511719 C 6.535156 -8.511719 6.992188 -7.75 6.953125 -6.230469 Z M 3.835938 -6.230469 "/></g></g></g><g fill="#2e2e2e" fill-opacity="1"><g transform="translate(113.52965, 289.295928)"><g><path d="M 6.574219 -2.148438 C 3.855469 -2.148438 3.34375 -2.375 3.34375 -3.039062 C 3.34375 -3.132812 3.382812 -3.210938 3.4375 -3.285156 C 3.988281 -3.152344 4.636719 -3.097656 5.355469 -3.097656 C 8.320312 -3.097656 9.820312 -4.273438 9.820312 -6.515625 C 9.820312 -7.769531 9.574219 -8.433594 9.082031 -8.984375 C 9.347656 -8.984375 9.574219 -8.984375 9.765625 -8.96875 C 10.203125 -8.949219 10.488281 -9.175781 10.601562 -9.726562 C 10.695312 -10.257812 10.144531 -10.65625 9.0625 -10.714844 C 8.226562 -10.773438 7.3125 -10.808594 6.554688 -10.808594 C 2.203125 -10.808594 0.625 -9.746094 0.625 -6.878906 C 0.625 -5.394531 1.179688 -4.351562 2.242188 -3.742188 C 1.558594 -3.4375 1.082031 -2.734375 1.082031 -1.976562 C 1.082031 -1.195312 1.539062 -0.492188 2.203125 -0.191406 C 1.328125 -0.152344 0.53125 0.457031 0.53125 1.691406 C 0.53125 3.589844 2.414062 4.75 5.300781 4.75 C 9.367188 4.75 10.773438 2.8125 10.773438 0.664062 C 10.773438 -1.40625 9.195312 -2.148438 6.574219 -2.148438 Z M 5.355469 -8.757812 C 6.496094 -8.757812 6.953125 -8.300781 6.953125 -6.972656 C 6.953125 -5.394531 6.308594 -4.976562 5.355469 -4.976562 C 4.371094 -4.976562 3.703125 -5.394531 3.703125 -6.972656 C 3.703125 -8.300781 4.160156 -8.757812 5.355469 -8.757812 Z M 5.492188 2.507812 C 3.742188 2.507812 2.851562 2.050781 2.851562 1.140625 C 2.851562 0.816406 2.984375 0.570312 3.25 0.417969 C 4.007812 0.53125 4.902344 0.511719 5.699219 0.511719 C 7.503906 0.511719 8.320312 0.550781 8.320312 1.425781 C 8.320312 2.222656 7.65625 2.507812 5.492188 2.507812 Z M 5.492188 2.507812 "/></g></g></g><g fill="#2e2e2e" fill-opacity="1"><g transform="translate(124.642378, 289.295928)"><g><path d="M 2.699219 -11.835938 C 4.101562 -11.835938 4.671875 -12.308594 4.671875 -13.449219 C 4.671875 -14.589844 4.101562 -15.066406 2.699219 -15.066406 C 1.292969 -15.066406 0.722656 -14.589844 0.722656 -13.449219 C 0.722656 -12.308594 1.292969 -11.835938 2.699219 -11.835938 Z M 2.753906 0 C 3.800781 0 4.351562 -0.570312 4.332031 -1.613281 C 4.332031 -2.699219 4.3125 -3.761719 4.332031 -4.863281 C 4.351562 -6.023438 4.351562 -7.5625 4.351562 -8.890625 C 4.351562 -9.9375 3.78125 -10.503906 2.734375 -10.503906 L 2.714844 -10.503906 C 1.671875 -10.503906 1.101562 -9.9375 1.101562 -8.910156 C 1.121094 -7.714844 1.121094 -6.042969 1.140625 -3.230469 L 1.140625 -1.613281 C 1.140625 -0.570312 1.710938 0 2.753906 0 Z M 2.753906 0 "/></g></g></g><g fill="#2e2e2e" fill-opacity="1"><g transform="translate(130.037271, 289.295928)"><g><path d="M 10.5625 -1.632812 C 10.542969 -3.34375 10.503906 -4.9375 10.542969 -6.269531 C 10.621094 -9.402344 9.613281 -10.675781 7.617188 -10.675781 C 6.15625 -10.675781 5.035156 -10.050781 4.3125 -8.71875 L 4.253906 -8.71875 C 4.253906 -9.101562 4.253906 -9.382812 4.253906 -9.632812 C 4.273438 -10.203125 3.703125 -10.523438 2.699219 -10.523438 C 1.671875 -10.523438 1.101562 -9.953125 1.101562 -8.910156 C 1.121094 -7.695312 1.140625 -6.496094 1.140625 -5.242188 C 1.140625 -4.007812 1.121094 -2.832031 1.101562 -1.613281 C 1.101562 -0.570312 1.671875 0 2.714844 0 L 2.832031 0 C 3.875 0 4.445312 -0.570312 4.445312 -1.613281 C 4.425781 -2.832031 4.40625 -4.007812 4.425781 -5.242188 C 4.425781 -5.773438 4.445312 -6.324219 4.445312 -6.839844 C 4.75 -7.523438 5.300781 -7.921875 6.023438 -7.941406 C 6.878906 -7.960938 7.3125 -7.542969 7.3125 -6.308594 C 7.3125 -4.996094 7.296875 -3.382812 7.277344 -1.632812 C 7.277344 -0.570312 7.847656 0 8.890625 0 L 8.949219 0 C 9.992188 0 10.5625 -0.570312 10.5625 -1.632812 Z M 10.5625 -1.632812 "/></g></g></g><g fill="#2e2e2e" fill-opacity="1"><g transform="translate(141.700882, 289.295928)"><g/></g></g><g fill="#2e2e2e" fill-opacity="1"><g transform="translate(146.449917, 289.295928)"><g><path d="M 8.035156 -11.457031 C 7.921875 -8.113281 7.390625 -6.460938 6.460938 -6.460938 C 5.128906 -6.460938 4.9375 -8.378906 4.730469 -11.511719 C 4.671875 -12.59375 4.101562 -13.144531 3.078125 -13.144531 L 2.261719 -13.144531 C 1.179688 -13.144531 0.625 -12.539062 0.742188 -11.472656 C 1.179688 -8.09375 2.050781 -5.167969 4.253906 -4.085938 C 4.21875 -3.171875 4.179688 -2.394531 4.160156 -1.613281 C 4.140625 -0.570312 4.710938 0 5.757812 0 L 6.097656 0 C 7.144531 0 7.714844 -0.570312 7.695312 -1.613281 C 7.675781 -2.414062 7.65625 -3.210938 7.617188 -4.140625 C 9.9375 -5.207031 10.753906 -8.226562 11.132812 -11.472656 C 11.265625 -12.539062 10.714844 -13.144531 9.652344 -13.144531 C 8.605469 -13.144531 8.074219 -12.558594 8.035156 -11.457031 Z M 8.035156 -11.457031 "/></g></g></g><g fill="#2e2e2e" fill-opacity="1"><g transform="translate(158.322486, 289.295928)"><g><path d="M 5.566406 0.226562 C 8.796875 0.226562 10.371094 -1.578125 10.371094 -5.222656 C 10.371094 -8.851562 8.796875 -10.675781 5.566406 -10.675781 C 2.296875 -10.675781 0.683594 -8.851562 0.683594 -5.222656 C 0.683594 -1.578125 2.296875 0.226562 5.566406 0.226562 Z M 5.566406 -2.089844 C 4.597656 -2.089844 3.933594 -2.699219 3.933594 -5.222656 C 3.933594 -7.542969 4.371094 -8.359375 5.566406 -8.359375 C 6.667969 -8.359375 7.125 -7.542969 7.125 -5.222656 C 7.125 -2.699219 6.460938 -2.089844 5.566406 -2.089844 Z M 5.566406 -2.089844 "/></g></g></g><g fill="#2e2e2e" fill-opacity="1"><g transform="translate(169.378222, 289.295928)"><g><path d="M 8.816406 -10.503906 L 8.699219 -10.503906 C 7.65625 -10.503906 7.085938 -9.9375 7.105469 -8.890625 C 7.125 -7.542969 7.144531 -6.230469 7.105469 -4.863281 C 7.105469 -3.304688 6.496094 -2.527344 5.625 -2.507812 C 4.863281 -2.488281 4.40625 -3.097656 4.40625 -4.3125 C 4.40625 -5.871094 4.425781 -7.351562 4.445312 -8.890625 C 4.445312 -9.9375 3.875 -10.503906 2.832031 -10.503906 L 2.714844 -10.503906 C 1.671875 -10.503906 1.101562 -9.9375 1.101562 -8.890625 C 1.121094 -7.144531 1.160156 -5.472656 1.121094 -3.703125 C 1.0625 -0.816406 2.316406 0.207031 4.179688 0.207031 C 5.679688 0.207031 6.761719 -0.511719 7.351562 -1.746094 C 7.390625 -1.445312 7.445312 -1.160156 7.523438 -0.855469 C 7.695312 -0.265625 8.246094 0 9.117188 0 C 9.953125 0 10.429688 -0.570312 10.410156 -1.613281 C 10.410156 -2.699219 10.390625 -3.761719 10.390625 -4.863281 C 10.390625 -6.230469 10.410156 -7.542969 10.429688 -8.890625 C 10.429688 -9.9375 9.859375 -10.503906 8.816406 -10.503906 Z M 8.816406 -10.503906 "/></g></g></g><g fill="#2e2e2e" fill-opacity="1"><g transform="translate(180.908865, 289.295928)"><g><path d="M 7.144531 -10.65625 C 7.027344 -10.675781 6.878906 -10.695312 6.667969 -10.695312 C 5.414062 -10.695312 4.539062 -9.59375 4.238281 -8.035156 L 4.179688 -8.074219 L 4.179688 -9.308594 C 4.179688 -10.105469 3.628906 -10.523438 2.640625 -10.523438 C 1.652344 -10.523438 1.101562 -9.953125 1.101562 -8.910156 C 1.121094 -7.695312 1.140625 -6.515625 1.140625 -5.261719 C 1.140625 -4.007812 1.121094 -2.832031 1.101562 -1.613281 C 1.101562 -0.570312 1.671875 0 2.714844 0 L 2.773438 0 C 3.835938 0 4.386719 -0.589844 4.351562 -1.652344 C 4.332031 -2.449219 4.3125 -3.230469 4.3125 -4.007812 C 4.3125 -4.40625 4.332031 -4.84375 4.332031 -5.261719 L 4.332031 -5.71875 C 4.671875 -6.742188 5.261719 -7.296875 6.097656 -7.296875 C 6.382812 -7.296875 6.609375 -7.257812 6.859375 -7.179688 C 7.332031 -7.011719 7.921875 -7.277344 8.167969 -8.265625 C 8.28125 -8.699219 8.300781 -9.15625 8.167969 -9.59375 C 7.921875 -10.335938 7.484375 -10.582031 7.144531 -10.65625 Z M 7.144531 -10.65625 "/></g></g></g><g fill="#2e2e2e" fill-opacity="1"><g transform="translate(189.191171, 289.295928)"><g/></g></g><g fill="#2e2e2e" fill-opacity="1"><g transform="translate(193.940206, 289.295928)"><g><path d="M 6.402344 0.191406 C 9.117188 0.191406 10.828125 -0.875 11.207031 -3.191406 C 11.398438 -4.292969 10.695312 -4.902344 9.652344 -4.902344 L 9.632812 -4.902344 C 8.644531 -4.902344 8.246094 -4.371094 7.921875 -3.363281 C 7.695312 -2.679688 7.238281 -2.433594 6.421875 -2.433594 C 5.339844 -2.433594 4.578125 -3.230469 4.578125 -6.59375 C 4.578125 -9.6875 5.109375 -10.789062 6.421875 -10.789062 C 7.390625 -10.789062 7.847656 -10.410156 7.996094 -9.421875 C 8.148438 -8.339844 8.550781 -7.75 9.59375 -7.75 L 9.707031 -7.75 C 10.734375 -7.75 11.4375 -8.300781 11.339844 -9.367188 C 11.113281 -11.949219 9.347656 -13.355469 6.535156 -13.355469 C 2.792969 -13.355469 0.929688 -11.09375 0.929688 -6.59375 C 0.929688 -2.070312 2.621094 0.191406 6.402344 0.191406 Z M 6.402344 0.191406 "/></g></g></g><g fill="#2e2e2e" fill-opacity="1"><g transform="translate(206.002735, 289.295928)"><g><path d="M 10.46875 -1.632812 C 10.449219 -3.34375 10.410156 -4.9375 10.449219 -6.269531 C 10.523438 -9.402344 9.519531 -10.675781 7.523438 -10.675781 C 6.058594 -10.675781 4.9375 -10.050781 4.21875 -8.71875 L 4.199219 -8.757812 C 4.332031 -9.535156 4.332031 -10.335938 4.332031 -11.207031 C 4.332031 -11.511719 4.332031 -11.96875 4.332031 -12.460938 C 4.332031 -13.296875 3.78125 -13.753906 2.734375 -13.753906 L 2.601562 -13.753906 C 1.558594 -13.753906 0.988281 -13.183594 0.988281 -12.140625 C 1.007812 -10.410156 1.042969 -8.796875 1.042969 -7.085938 C 1.042969 -5.207031 1.007812 -3.4375 0.988281 -1.613281 C 0.988281 -0.570312 1.558594 0 2.601562 0 L 2.734375 0 C 3.78125 0 4.351562 -0.570312 4.351562 -1.613281 C 4.332031 -3.34375 4.292969 -5.035156 4.332031 -6.800781 C 4.636719 -7.503906 5.1875 -7.921875 5.925781 -7.941406 C 6.78125 -7.960938 7.21875 -7.542969 7.21875 -6.308594 C 7.21875 -4.996094 7.199219 -3.382812 7.179688 -1.632812 C 7.179688 -0.570312 7.75 0 8.796875 0 L 8.851562 0 C 9.898438 0 10.46875 -0.570312 10.46875 -1.632812 Z M 10.46875 -1.632812 "/></g></g></g><g fill="#2e2e2e" fill-opacity="1"><g transform="translate(217.571372, 289.295928)"><g><path d="M 3.96875 0.191406 C 5.035156 0.191406 6.058594 -0.171875 6.820312 -0.910156 C 6.839844 -0.761719 6.859375 -0.609375 6.914062 -0.457031 C 6.992188 -0.152344 7.503906 0 8.472656 0 L 8.644531 0 C 9.667969 0 10.203125 -0.589844 10.144531 -1.652344 C 10.085938 -2.945312 10.085938 -4.597656 10.085938 -6.878906 C 10.085938 -9.421875 8.683594 -10.675781 5.851562 -10.675781 C 3.078125 -10.675781 1.613281 -9.9375 1.179688 -8.453125 C 0.875 -7.410156 1.652344 -6.800781 2.714844 -6.800781 L 2.90625 -6.800781 C 3.835938 -6.800781 3.914062 -7.3125 4.464844 -8.148438 C 4.691406 -8.492188 5.109375 -8.625 5.605469 -8.625 C 6.441406 -8.625 6.820312 -8.207031 6.820312 -6.820312 L 6.820312 -6.175781 C 2.546875 -6.289062 0.589844 -5.054688 0.589844 -2.679688 C 0.589844 -0.683594 2.089844 0.191406 3.96875 0.191406 Z M 4.976562 -1.957031 C 4.085938 -1.957031 3.609375 -2.46875 3.609375 -3.191406 C 3.609375 -4.40625 5.128906 -4.617188 6.859375 -4.65625 L 6.859375 -2.945312 C 6.421875 -2.316406 5.832031 -1.957031 4.976562 -1.957031 Z M 4.976562 -1.957031 "/></g></g></g><g fill="#2e2e2e" fill-opacity="1"><g transform="translate(228.627108, 289.295928)"><g><path d="M 6.023438 -2.296875 C 5.109375 -2.28125 4.710938 -2.792969 4.710938 -3.894531 C 4.710938 -4.882812 4.691406 -6.003906 4.730469 -7.085938 C 4.730469 -7.429688 4.75 -7.75 4.75 -8.09375 L 6.230469 -8.113281 C 7.179688 -8.113281 7.695312 -8.53125 7.695312 -9.308594 C 7.695312 -10.085938 7.125 -10.503906 6.078125 -10.503906 L 4.75 -10.503906 L 4.75 -12.175781 C 4.75 -13.183594 4.046875 -13.621094 2.984375 -13.277344 C 2.089844 -12.996094 1.652344 -12.40625 1.652344 -11.457031 C 1.652344 -11.132812 1.671875 -10.828125 1.671875 -10.503906 L 0.875 -10.503906 C 0.359375 -10.503906 0.0585938 -10.070312 0.0585938 -9.289062 C 0.0585938 -8.511719 0.625 -8.074219 1.671875 -8.074219 L 1.691406 -8.074219 L 1.691406 -7.085938 C 1.691406 -5.871094 1.691406 -4.636719 1.671875 -3.515625 C 1.613281 -0.761719 3.132812 0.226562 5.492188 0.226562 C 5.925781 0.226562 6.363281 0.191406 6.742188 0.113281 C 7.578125 -0.0585938 7.902344 -0.683594 7.828125 -1.5 C 7.75 -2.28125 7.125 -2.335938 6.023438 -2.296875 Z M 6.023438 -2.296875 "/></g></g></g><g fill="#2e2e2e" fill-opacity="1"><g transform="translate(236.795443, 289.295928)"><g/></g></g><g fill="#2e2e2e" fill-opacity="1"><g transform="translate(241.544477, 289.295928)"><g><path d="M 11.777344 -6.59375 C 11.777344 -8.246094 11.777344 -9.898438 11.777344 -11.550781 C 11.796875 -12.59375 11.226562 -13.164062 10.183594 -13.164062 L 9.820312 -13.164062 C 8.777344 -13.164062 8.207031 -12.59375 8.226562 -11.550781 C 8.246094 -10.296875 8.246094 -9.042969 8.246094 -7.789062 L 4.976562 -7.789062 C 4.976562 -9.042969 4.976562 -10.296875 4.976562 -11.550781 C 4.996094 -12.59375 4.425781 -13.164062 3.382812 -13.164062 L 3.039062 -13.164062 C 1.996094 -13.164062 1.425781 -12.59375 1.445312 -11.550781 C 1.445312 -9.898438 1.460938 -8.246094 1.460938 -6.59375 C 1.460938 -4.9375 1.445312 -3.285156 1.445312 -1.613281 C 1.425781 -0.570312 1.996094 0 3.039062 0 L 3.382812 0 C 4.425781 0 4.996094 -0.570312 4.976562 -1.613281 C 4.976562 -2.8125 4.976562 -3.988281 4.976562 -5.167969 L 8.246094 -5.167969 C 8.246094 -3.988281 8.246094 -2.8125 8.226562 -1.613281 C 8.207031 -0.570312 8.777344 0 9.820312 0 L 10.183594 0 C 11.226562 0 11.796875 -0.570312 11.777344 -1.613281 C 11.777344 -3.285156 11.757812 -4.9375 11.777344 -6.59375 Z M 11.777344 -6.59375 "/></g></g></g><g fill="#2e2e2e" fill-opacity="1"><g transform="translate(254.765779, 289.295928)"><g><path d="M 5.585938 0.191406 C 7.921875 0.191406 9.347656 -0.476562 9.800781 -1.878906 C 10.085938 -2.734375 9.382812 -3.265625 8.398438 -3.265625 C 7.578125 -3.265625 7.503906 -2.734375 6.78125 -2.261719 C 6.515625 -2.109375 6.117188 -2.015625 5.605469 -2.015625 C 4.617188 -2.015625 3.894531 -2.488281 3.820312 -4.445312 L 9.878906 -4.445312 C 10.03125 -4.445312 10.144531 -4.558594 10.164062 -4.75 C 10.523438 -8.28125 9.117188 -10.675781 5.585938 -10.675781 C 2.296875 -10.675781 0.683594 -8.910156 0.683594 -5.414062 C 0.683594 -1.671875 2.183594 0.191406 5.585938 0.191406 Z M 3.835938 -6.230469 C 3.800781 -7.769531 4.445312 -8.511719 5.433594 -8.511719 C 6.535156 -8.511719 6.992188 -7.75 6.953125 -6.230469 Z M 3.835938 -6.230469 "/></g></g></g><g fill="#2e2e2e" fill-opacity="1"><g transform="translate(265.745537, 289.295928)"><g><path d="M 7.144531 -10.65625 C 7.027344 -10.675781 6.878906 -10.695312 6.667969 -10.695312 C 5.414062 -10.695312 4.539062 -9.59375 4.238281 -8.035156 L 4.179688 -8.074219 L 4.179688 -9.308594 C 4.179688 -10.105469 3.628906 -10.523438 2.640625 -10.523438 C 1.652344 -10.523438 1.101562 -9.953125 1.101562 -8.910156 C 1.121094 -7.695312 1.140625 -6.515625 1.140625 -5.261719 C 1.140625 -4.007812 1.121094 -2.832031 1.101562 -1.613281 C 1.101562 -0.570312 1.671875 0 2.714844 0 L 2.773438 0 C 3.835938 0 4.386719 -0.589844 4.351562 -1.652344 C 4.332031 -2.449219 4.3125 -3.230469 4.3125 -4.007812 C 4.3125 -4.40625 4.332031 -4.84375 4.332031 -5.261719 L 4.332031 -5.71875 C 4.671875 -6.742188 5.261719 -7.296875 6.097656 -7.296875 C 6.382812 -7.296875 6.609375 -7.257812 6.859375 -7.179688 C 7.332031 -7.011719 7.921875 -7.277344 8.167969 -8.265625 C 8.28125 -8.699219 8.300781 -9.15625 8.167969 -9.59375 C 7.921875 -10.335938 7.484375 -10.582031 7.144531 -10.65625 Z M 7.144531 -10.65625 "/></g></g></g><g fill="#2e2e2e" fill-opacity="1"><g transform="translate(274.027843, 289.295928)"><g><path d="M 5.585938 0.191406 C 7.921875 0.191406 9.347656 -0.476562 9.800781 -1.878906 C 10.085938 -2.734375 9.382812 -3.265625 8.398438 -3.265625 C 7.578125 -3.265625 7.503906 -2.734375 6.78125 -2.261719 C 6.515625 -2.109375 6.117188 -2.015625 5.605469 -2.015625 C 4.617188 -2.015625 3.894531 -2.488281 3.820312 -4.445312 L 9.878906 -4.445312 C 10.03125 -4.445312 10.144531 -4.558594 10.164062 -4.75 C 10.523438 -8.28125 9.117188 -10.675781 5.585938 -10.675781 C 2.296875 -10.675781 0.683594 -8.910156 0.683594 -5.414062 C 0.683594 -1.671875 2.183594 0.191406 5.585938 0.191406 Z M 3.835938 -6.230469 C 3.800781 -7.769531 4.445312 -8.511719 5.433594 -8.511719 C 6.535156 -8.511719 6.992188 -7.75 6.953125 -6.230469 Z M 3.835938 -6.230469 "/></g></g></g></svg>