<svg xmlns="http://www.w3.org/2000/svg" xmlns:xlink="http://www.w3.org/1999/xlink" width="500" zoomAndPan="magnify" viewBox="0 0 375 374.999991" height="500" preserveAspectRatio="xMidYMid meet" version="1.0"><defs><g/><clipPath id="3776fe59fe"><path d="M 49 21 L 326 21 L 326 228.246094 L 49 228.246094 Z M 49 21 " clip-rule="nonzero"/></clipPath></defs><g clip-path="url(#3776fe59fe)"><path fill="#f89e1d" d="M 305.847656 21.140625 C 226.925781 24.171875 129.519531 41.1875 69.085938 57.140625 C 55.832031 60.644531 46.863281 66.695312 50.015625 77.871094 C 58.03125 107.1875 66.054688 136.5 74.074219 165.816406 C 77.226562 176.992188 88.003906 185.820312 98.160156 186.410156 C 101.386719 186.589844 104.605469 186.832031 107.832031 187.109375 C 106.550781 201.085938 102.640625 218.726562 91.542969 228.207031 C 91.542969 228.207031 135.089844 208.519531 155.503906 194 C 195.929688 201.578125 236.351562 212.023438 276.769531 213.574219 C 286.925781 213.980469 297.707031 200.015625 300.855469 183.308594 C 308.878906 139.335938 316.902344 95.367188 324.914062 51.390625 C 328.070312 34.6875 319.535156 20.597656 305.847656 21.140625 " fill-opacity="1" fill-rule="nonzero"/></g><path fill="#ffffff" d="M 160.433594 112.8125 C 160.433594 120.773438 153.980469 127.230469 146.015625 127.230469 C 138.058594 127.230469 131.601562 120.773438 131.601562 112.8125 C 131.601562 104.855469 138.058594 98.402344 146.015625 98.402344 C 153.980469 98.402344 160.433594 104.855469 160.433594 112.8125 " fill-opacity="1" fill-rule="nonzero"/><path fill="#ffffff" d="M 201.894531 112.8125 C 201.894531 120.773438 195.4375 127.230469 187.476562 127.230469 C 179.515625 127.230469 173.0625 120.773438 173.0625 112.8125 C 173.0625 104.855469 179.515625 98.402344 187.476562 98.402344 C 195.4375 98.402344 201.894531 104.855469 201.894531 112.8125 " fill-opacity="1" fill-rule="nonzero"/><path fill="#ffffff" d="M 243.351562 112.8125 C 243.351562 120.773438 236.898438 127.230469 228.9375 127.230469 C 220.976562 127.230469 214.523438 120.773438 214.523438 112.8125 C 214.523438 104.855469 220.976562 98.402344 228.9375 98.402344 C 236.898438 98.402344 243.351562 104.855469 243.351562 112.8125 " fill-opacity="1" fill-rule="nonzero"/><path fill="#fbc519" d="M 114.859375 135.144531 C 114.136719 112.554688 120.972656 93.566406 140.085938 80.375 C 172.769531 57.828125 212.5625 53.746094 251.207031 55.730469 C 263.566406 56.363281 275.921875 57.5 288.289062 57.957031 C 293.292969 58.136719 298.300781 57.660156 303.300781 57.988281 C 308.660156 58.339844 312.523438 59.585938 313 52.675781 C 313.332031 47.902344 313.03125 42.023438 311.128906 37.621094 C 308.300781 31.0625 302.265625 26.511719 294.925781 26.792969 C 221.289062 29.617188 130.40625 45.496094 74.015625 60.382812 C 61.648438 63.652344 53.28125 69.296875 56.222656 79.726562 C 63.703125 107.070312 71.1875 134.425781 78.671875 161.777344 C 81.613281 172.207031 91.671875 180.4375 101.144531 180.992188 C 104.152344 181.160156 107.160156 181.386719 110.167969 181.644531 C 108.976562 194.6875 115.492188 154.878906 114.859375 135.144531 " fill-opacity="1" fill-rule="nonzero"/><g fill="#2e2e2e" fill-opacity="1"><g transform="translate(62.253767, 303.642931)"><g><path d="M 44.609375 -6.8125 C 44.484375 -5.726562 44.304688 -4.664062 44.078125 -3.625 C 43.847656 -2.582031 43.566406 -1.65625 43.234375 -0.84375 C 42.898438 -0.03125 42.472656 0.613281 41.953125 1.09375 C 41.429688 1.570312 40.835938 1.8125 40.171875 1.8125 C 39.503906 1.8125 38.898438 1.300781 38.359375 0.28125 C 37.816406 -0.738281 37.304688 -2.09375 36.828125 -3.78125 C 36.347656 -5.46875 35.910156 -7.375 35.515625 -9.5 C 35.117188 -11.625 34.765625 -13.773438 34.453125 -15.953125 C 34.140625 -18.140625 33.878906 -20.273438 33.671875 -22.359375 C 33.460938 -24.441406 33.296875 -26.253906 33.171875 -27.796875 C 32.921875 -26.210938 32.628906 -24.441406 32.296875 -22.484375 C 31.960938 -20.523438 31.566406 -18.535156 31.109375 -16.515625 C 30.648438 -14.503906 30.148438 -12.53125 29.609375 -10.59375 C 29.066406 -8.65625 28.484375 -6.925781 27.859375 -5.40625 C 27.234375 -3.882812 26.566406 -2.664062 25.859375 -1.75 C 25.148438 -0.832031 24.398438 -0.375 23.609375 -0.375 C 22.898438 -0.375 22.191406 -0.851562 21.484375 -1.8125 C 20.773438 -2.769531 20.085938 -4.03125 19.421875 -5.59375 C 18.753906 -7.15625 18.128906 -8.894531 17.546875 -10.8125 C 16.960938 -12.726562 16.421875 -14.648438 15.921875 -16.578125 C 15.429688 -18.515625 15 -20.347656 14.625 -22.078125 C 14.25 -23.804688 13.957031 -25.253906 13.75 -26.421875 C 13.75 -25.546875 13.738281 -24.578125 13.71875 -23.515625 C 13.695312 -22.453125 13.6875 -21.691406 13.6875 -21.234375 C 13.6875 -21.023438 13.675781 -20.335938 13.65625 -19.171875 C 13.632812 -18.003906 13.5625 -16.609375 13.4375 -14.984375 C 13.3125 -13.367188 13.125 -11.632812 12.875 -9.78125 C 12.625 -7.925781 12.257812 -6.207031 11.78125 -4.625 C 11.300781 -3.039062 10.707031 -1.707031 10 -0.625 C 9.289062 0.457031 8.414062 1.039062 7.375 1.125 C 6.539062 0.75 5.84375 0.113281 5.28125 -0.78125 C 4.71875 -1.675781 4.25 -2.726562 3.875 -3.9375 C 3.5 -5.144531 3.207031 -6.4375 3 -7.8125 C 2.789062 -9.1875 2.625 -10.53125 2.5 -11.84375 C 2.375 -13.15625 2.300781 -14.367188 2.28125 -15.484375 C 2.257812 -16.609375 2.25 -17.523438 2.25 -18.234375 C 2.25 -19.484375 2.320312 -21.054688 2.46875 -22.953125 C 2.613281 -24.847656 2.851562 -26.835938 3.1875 -28.921875 C 3.519531 -31.003906 3.957031 -33.085938 4.5 -35.171875 C 5.039062 -37.253906 5.695312 -39.117188 6.46875 -40.765625 C 7.238281 -42.410156 8.132812 -43.753906 9.15625 -44.796875 C 10.175781 -45.835938 11.351562 -46.359375 12.6875 -46.359375 C 13.3125 -46.359375 13.976562 -46.003906 14.6875 -45.296875 C 15.394531 -44.585938 16.097656 -43.660156 16.796875 -42.515625 C 17.503906 -41.367188 18.191406 -40.085938 18.859375 -38.671875 C 19.523438 -37.253906 20.160156 -35.828125 20.765625 -34.390625 C 21.367188 -32.953125 21.898438 -31.578125 22.359375 -30.265625 C 22.816406 -28.953125 23.191406 -27.835938 23.484375 -26.921875 C 23.816406 -27.921875 24.234375 -29.085938 24.734375 -30.421875 C 25.234375 -31.753906 25.785156 -33.140625 26.390625 -34.578125 C 26.992188 -36.015625 27.660156 -37.429688 28.390625 -38.828125 C 29.117188 -40.222656 29.878906 -41.472656 30.671875 -42.578125 C 31.460938 -43.679688 32.265625 -44.578125 33.078125 -45.265625 C 33.890625 -45.953125 34.710938 -46.296875 35.546875 -46.296875 C 37.003906 -46.296875 38.253906 -45.753906 39.296875 -44.671875 C 40.335938 -43.585938 41.210938 -42.179688 41.921875 -40.453125 C 42.628906 -38.722656 43.191406 -36.785156 43.609375 -34.640625 C 44.023438 -32.492188 44.347656 -30.367188 44.578125 -28.265625 C 44.804688 -26.160156 44.953125 -24.191406 45.015625 -22.359375 C 45.078125 -20.523438 45.109375 -19.046875 45.109375 -17.921875 C 45.109375 -17.460938 45.109375 -16.835938 45.109375 -16.046875 C 45.109375 -15.265625 45.097656 -14.375 45.078125 -13.375 C 45.054688 -12.375 45.003906 -11.3125 44.921875 -10.1875 C 44.835938 -9.0625 44.734375 -7.9375 44.609375 -6.8125 Z M 44.609375 -6.8125 "/></g></g></g><g fill="#2e2e2e" fill-opacity="1"><g transform="translate(111.197949, 303.642931)"><g><path d="M 12.1875 -43.609375 C 12.1875 -43.023438 12.03125 -42.503906 11.71875 -42.046875 C 11.40625 -41.585938 11 -41.179688 10.5 -40.828125 C 10 -40.472656 9.457031 -40.203125 8.875 -40.015625 C 8.289062 -39.828125 7.75 -39.734375 7.25 -39.734375 C 6.414062 -39.734375 5.6875 -39.941406 5.0625 -40.359375 C 4.4375 -40.773438 4.125 -41.421875 4.125 -42.296875 C 4.125 -42.921875 4.28125 -43.472656 4.59375 -43.953125 C 4.90625 -44.429688 5.289062 -44.828125 5.75 -45.140625 C 6.207031 -45.453125 6.726562 -45.691406 7.3125 -45.859375 C 7.894531 -46.023438 8.457031 -46.109375 9 -46.109375 C 9.789062 -46.109375 10.519531 -45.921875 11.1875 -45.546875 C 11.851562 -45.171875 12.1875 -44.523438 12.1875 -43.609375 Z M 12.6875 -22.359375 C 12.6875 -21.773438 12.6875 -21.160156 12.6875 -20.515625 C 12.6875 -19.867188 12.664062 -19.253906 12.625 -18.671875 C 12.582031 -17.960938 12.5625 -17.015625 12.5625 -15.828125 C 12.5625 -14.648438 12.519531 -13.375 12.4375 -12 C 12.351562 -10.625 12.21875 -9.226562 12.03125 -7.8125 C 11.84375 -6.394531 11.539062 -5.101562 11.125 -3.9375 C 10.707031 -2.769531 10.15625 -1.820312 9.46875 -1.09375 C 8.78125 -0.363281 7.914062 0.0195312 6.875 0.0625 C 6.082031 0.101562 5.414062 -0.207031 4.875 -0.875 C 4.332031 -1.539062 3.882812 -2.40625 3.53125 -3.46875 C 3.175781 -4.53125 2.914062 -5.71875 2.75 -7.03125 C 2.582031 -8.34375 2.457031 -9.613281 2.375 -10.84375 C 2.289062 -12.070312 2.25 -13.207031 2.25 -14.25 C 2.25 -15.289062 2.25 -16.054688 2.25 -16.546875 C 2.25 -17.210938 2.25 -18.160156 2.25 -19.390625 C 2.25 -20.617188 2.289062 -21.941406 2.375 -23.359375 C 2.457031 -24.773438 2.613281 -26.210938 2.84375 -27.671875 C 3.070312 -29.128906 3.40625 -30.460938 3.84375 -31.671875 C 4.28125 -32.878906 4.851562 -33.859375 5.5625 -34.609375 C 6.269531 -35.359375 7.164062 -35.734375 8.25 -35.734375 C 9.375 -35.734375 10.226562 -35.171875 10.8125 -34.046875 C 11.394531 -32.921875 11.832031 -31.609375 12.125 -30.109375 C 12.414062 -28.609375 12.582031 -27.117188 12.625 -25.640625 C 12.664062 -24.160156 12.6875 -23.066406 12.6875 -22.359375 Z M 12.6875 -22.359375 "/></g></g></g><g fill="#2e2e2e" fill-opacity="1"><g transform="translate(127.720209, 303.642931)"><g><path d="M 19.609375 1.75 C 18.898438 1.75 18.335938 1.425781 17.921875 0.78125 C 17.503906 0.132812 17.191406 -0.601562 16.984375 -1.4375 C 16.773438 -2.269531 16.640625 -3.113281 16.578125 -3.96875 C 16.515625 -4.820312 16.484375 -5.476562 16.484375 -5.9375 C 16.484375 -7.1875 16.554688 -8.4375 16.703125 -9.6875 C 16.847656 -10.9375 17.015625 -12.1875 17.203125 -13.4375 C 17.390625 -14.6875 17.554688 -15.929688 17.703125 -17.171875 C 17.847656 -18.421875 17.921875 -19.671875 17.921875 -20.921875 C 17.921875 -21.421875 17.898438 -21.960938 17.859375 -22.546875 C 17.816406 -23.128906 17.722656 -23.679688 17.578125 -24.203125 C 17.429688 -24.722656 17.191406 -25.148438 16.859375 -25.484375 C 16.523438 -25.816406 16.09375 -25.984375 15.5625 -25.984375 C 15.1875 -25.984375 14.769531 -25.679688 14.3125 -25.078125 C 13.851562 -24.472656 13.425781 -23.785156 13.03125 -23.015625 C 12.632812 -22.242188 12.300781 -21.472656 12.03125 -20.703125 C 11.757812 -19.929688 11.625 -19.359375 11.625 -18.984375 C 11.625 -18.066406 11.632812 -17.140625 11.65625 -16.203125 C 11.675781 -15.273438 11.6875 -14.332031 11.6875 -13.375 L 11.6875 -9.75 C 11.644531 -9 11.582031 -8.226562 11.5 -7.4375 C 11.414062 -6.644531 11.289062 -5.875 11.125 -5.125 C 11 -4.375 10.8125 -3.65625 10.5625 -2.96875 C 10.3125 -2.28125 9.988281 -1.675781 9.59375 -1.15625 C 9.195312 -0.632812 8.726562 -0.207031 8.1875 0.125 C 7.644531 0.457031 7 0.625 6.25 0.625 C 5.414062 0.625 4.726562 0.351562 4.1875 -0.1875 C 3.644531 -0.726562 3.207031 -1.425781 2.875 -2.28125 C 2.539062 -3.132812 2.300781 -4.09375 2.15625 -5.15625 C 2.007812 -6.21875 1.90625 -7.257812 1.84375 -8.28125 C 1.78125 -9.300781 1.757812 -10.238281 1.78125 -11.09375 C 1.800781 -11.945312 1.8125 -12.625 1.8125 -13.125 L 1.8125 -16.046875 C 1.8125 -17.628906 1.78125 -19.191406 1.71875 -20.734375 C 1.65625 -22.273438 1.625 -23.816406 1.625 -25.359375 C 1.625 -26.191406 1.632812 -27.253906 1.65625 -28.546875 C 1.675781 -29.835938 1.832031 -31.097656 2.125 -32.328125 C 2.414062 -33.554688 2.894531 -34.609375 3.5625 -35.484375 C 4.226562 -36.359375 5.207031 -36.796875 6.5 -36.796875 C 7.082031 -36.796875 7.601562 -36.609375 8.0625 -36.234375 C 8.519531 -35.859375 8.925781 -35.398438 9.28125 -34.859375 C 9.632812 -34.316406 9.925781 -33.734375 10.15625 -33.109375 C 10.382812 -32.484375 10.5625 -31.941406 10.6875 -31.484375 C 11.101562 -32.066406 11.59375 -32.628906 12.15625 -33.171875 C 12.71875 -33.710938 13.351562 -34.191406 14.0625 -34.609375 C 14.769531 -35.023438 15.554688 -35.359375 16.421875 -35.609375 C 17.296875 -35.859375 18.296875 -35.984375 19.421875 -35.984375 C 21.546875 -35.984375 23.203125 -35.472656 24.390625 -34.453125 C 25.578125 -33.429688 26.453125 -32.160156 27.015625 -30.640625 C 27.578125 -29.117188 27.921875 -27.484375 28.046875 -25.734375 C 28.171875 -23.984375 28.234375 -22.398438 28.234375 -20.984375 C 28.234375 -20.273438 28.171875 -19.222656 28.046875 -17.828125 C 27.921875 -16.441406 27.722656 -14.90625 27.453125 -13.21875 C 27.179688 -11.53125 26.816406 -9.800781 26.359375 -8.03125 C 25.898438 -6.257812 25.359375 -4.644531 24.734375 -3.1875 C 24.109375 -1.726562 23.367188 -0.539062 22.515625 0.375 C 21.660156 1.289062 20.691406 1.75 19.609375 1.75 Z M 19.609375 1.75 "/></g></g></g><g fill="#2e2e2e" fill-opacity="1"><g transform="translate(158.860449, 303.642931)"><g><path d="M 12.1875 -43.609375 C 12.1875 -43.023438 12.03125 -42.503906 11.71875 -42.046875 C 11.40625 -41.585938 11 -41.179688 10.5 -40.828125 C 10 -40.472656 9.457031 -40.203125 8.875 -40.015625 C 8.289062 -39.828125 7.75 -39.734375 7.25 -39.734375 C 6.414062 -39.734375 5.6875 -39.941406 5.0625 -40.359375 C 4.4375 -40.773438 4.125 -41.421875 4.125 -42.296875 C 4.125 -42.921875 4.28125 -43.472656 4.59375 -43.953125 C 4.90625 -44.429688 5.289062 -44.828125 5.75 -45.140625 C 6.207031 -45.453125 6.726562 -45.691406 7.3125 -45.859375 C 7.894531 -46.023438 8.457031 -46.109375 9 -46.109375 C 9.789062 -46.109375 10.519531 -45.921875 11.1875 -45.546875 C 11.851562 -45.171875 12.1875 -44.523438 12.1875 -43.609375 Z M 12.6875 -22.359375 C 12.6875 -21.773438 12.6875 -21.160156 12.6875 -20.515625 C 12.6875 -19.867188 12.664062 -19.253906 12.625 -18.671875 C 12.582031 -17.960938 12.5625 -17.015625 12.5625 -15.828125 C 12.5625 -14.648438 12.519531 -13.375 12.4375 -12 C 12.351562 -10.625 12.21875 -9.226562 12.03125 -7.8125 C 11.84375 -6.394531 11.539062 -5.101562 11.125 -3.9375 C 10.707031 -2.769531 10.15625 -1.820312 9.46875 -1.09375 C 8.78125 -0.363281 7.914062 0.0195312 6.875 0.0625 C 6.082031 0.101562 5.414062 -0.207031 4.875 -0.875 C 4.332031 -1.539062 3.882812 -2.40625 3.53125 -3.46875 C 3.175781 -4.53125 2.914062 -5.71875 2.75 -7.03125 C 2.582031 -8.34375 2.457031 -9.613281 2.375 -10.84375 C 2.289062 -12.070312 2.25 -13.207031 2.25 -14.25 C 2.25 -15.289062 2.25 -16.054688 2.25 -16.546875 C 2.25 -17.210938 2.25 -18.160156 2.25 -19.390625 C 2.25 -20.617188 2.289062 -21.941406 2.375 -23.359375 C 2.457031 -24.773438 2.613281 -26.210938 2.84375 -27.671875 C 3.070312 -29.128906 3.40625 -30.460938 3.84375 -31.671875 C 4.28125 -32.878906 4.851562 -33.859375 5.5625 -34.609375 C 6.269531 -35.359375 7.164062 -35.734375 8.25 -35.734375 C 9.375 -35.734375 10.226562 -35.171875 10.8125 -34.046875 C 11.394531 -32.921875 11.832031 -31.609375 12.125 -30.109375 C 12.414062 -28.609375 12.582031 -27.117188 12.625 -25.640625 C 12.664062 -24.160156 12.6875 -23.066406 12.6875 -22.359375 Z M 12.6875 -22.359375 "/></g></g></g><g fill="#2e2e2e" fill-opacity="1"><g transform="translate(175.382705, 303.642931)"><g/></g></g><g fill="#2e2e2e" fill-opacity="1"><g transform="translate(191.717551, 303.642931)"><g><path d="M 29.484375 -31.796875 C 29.484375 -31.003906 29.390625 -30.171875 29.203125 -29.296875 C 29.015625 -28.421875 28.710938 -27.609375 28.296875 -26.859375 C 27.878906 -26.109375 27.335938 -25.484375 26.671875 -24.984375 C 26.003906 -24.484375 25.191406 -24.234375 24.234375 -24.234375 C 22.773438 -24.234375 21.691406 -24.492188 20.984375 -25.015625 C 20.273438 -25.535156 19.773438 -26.191406 19.484375 -26.984375 C 19.191406 -27.773438 19.035156 -28.617188 19.015625 -29.515625 C 18.992188 -30.410156 18.960938 -31.253906 18.921875 -32.046875 C 18.878906 -32.835938 18.742188 -33.492188 18.515625 -34.015625 C 18.285156 -34.535156 17.796875 -34.796875 17.046875 -34.796875 C 16.222656 -34.796875 15.5 -34.492188 14.875 -33.890625 C 14.25 -33.285156 13.707031 -32.503906 13.25 -31.546875 C 12.789062 -30.585938 12.40625 -29.503906 12.09375 -28.296875 C 11.78125 -27.085938 11.53125 -25.890625 11.34375 -24.703125 C 11.15625 -23.515625 11.019531 -22.390625 10.9375 -21.328125 C 10.851562 -20.265625 10.8125 -19.398438 10.8125 -18.734375 C 10.8125 -17.859375 10.84375 -16.816406 10.90625 -15.609375 C 10.96875 -14.410156 11.164062 -13.257812 11.5 -12.15625 C 11.832031 -11.050781 12.332031 -10.113281 13 -9.34375 C 13.664062 -8.570312 14.625 -8.1875 15.875 -8.1875 C 16.695312 -8.1875 17.503906 -8.289062 18.296875 -8.5 C 19.085938 -8.707031 19.878906 -8.945312 20.671875 -9.21875 C 21.460938 -9.488281 22.265625 -9.726562 23.078125 -9.9375 C 23.890625 -10.144531 24.710938 -10.25 25.546875 -10.25 C 26.503906 -10.25 27.296875 -9.863281 27.921875 -9.09375 C 28.546875 -8.320312 28.859375 -7.457031 28.859375 -6.5 C 28.859375 -5.164062 28.441406 -3.925781 27.609375 -2.78125 C 26.773438 -1.632812 25.742188 -0.625 24.515625 0.25 C 23.285156 1.125 21.953125 1.8125 20.515625 2.3125 C 19.078125 2.8125 17.773438 3.0625 16.609375 3.0625 C 13.617188 3.0625 11.082031 2.382812 9 1.03125 C 6.914062 -0.320312 5.226562 -2.070312 3.9375 -4.21875 C 2.644531 -6.363281 1.71875 -8.757812 1.15625 -11.40625 C 0.59375 -14.050781 0.3125 -16.679688 0.3125 -19.296875 C 0.3125 -21.046875 0.476562 -22.960938 0.8125 -25.046875 C 1.144531 -27.128906 1.644531 -29.222656 2.3125 -31.328125 C 2.976562 -33.429688 3.820312 -35.460938 4.84375 -37.421875 C 5.863281 -39.378906 7.0625 -41.109375 8.4375 -42.609375 C 9.8125 -44.109375 11.363281 -45.316406 13.09375 -46.234375 C 14.820312 -47.148438 16.722656 -47.609375 18.796875 -47.609375 C 20.835938 -47.609375 22.546875 -47.097656 23.921875 -46.078125 C 25.296875 -45.054688 26.398438 -43.765625 27.234375 -42.203125 C 28.066406 -40.640625 28.648438 -38.929688 28.984375 -37.078125 C 29.316406 -35.222656 29.484375 -33.460938 29.484375 -31.796875 Z M 29.484375 -31.796875 "/></g></g></g><g fill="#2e2e2e" fill-opacity="1"><g transform="translate(223.107663, 303.642931)"><g><path d="M 30.234375 -16.171875 C 30.234375 -15.472656 30.222656 -14.425781 30.203125 -13.03125 C 30.179688 -11.632812 30.117188 -10.175781 30.015625 -8.65625 C 29.910156 -7.132812 29.773438 -5.695312 29.609375 -4.34375 C 29.441406 -2.988281 29.234375 -2 28.984375 -1.375 C 28.648438 -0.582031 28.210938 0.101562 27.671875 0.6875 C 27.128906 1.269531 26.398438 1.5625 25.484375 1.5625 C 24.066406 1.5625 23.046875 1 22.421875 -0.125 C 21.796875 -1.25 21.378906 -2.644531 21.171875 -4.3125 C 20.960938 -5.976562 20.878906 -7.789062 20.921875 -9.75 C 20.960938 -11.707031 20.941406 -13.515625 20.859375 -15.171875 C 20.773438 -16.835938 20.546875 -18.234375 20.171875 -19.359375 C 19.796875 -20.484375 19.109375 -21.046875 18.109375 -21.046875 C 16.734375 -21.046875 15.679688 -20.828125 14.953125 -20.390625 C 14.234375 -19.953125 13.71875 -19.378906 13.40625 -18.671875 C 13.09375 -17.960938 12.90625 -17.148438 12.84375 -16.234375 C 12.78125 -15.328125 12.707031 -14.375 12.625 -13.375 C 12.539062 -12.414062 12.476562 -11.125 12.4375 -9.5 C 12.394531 -7.875 12.207031 -6.269531 11.875 -4.6875 C 11.539062 -3.101562 10.988281 -1.738281 10.21875 -0.59375 C 9.445312 0.550781 8.3125 1.125 6.8125 1.125 C 5.894531 1.125 5.15625 0.769531 4.59375 0.0625 C 4.03125 -0.644531 3.582031 -1.5625 3.25 -2.6875 C 2.914062 -3.8125 2.675781 -5.0625 2.53125 -6.4375 C 2.382812 -7.8125 2.300781 -9.15625 2.28125 -10.46875 C 2.257812 -11.78125 2.257812 -12.976562 2.28125 -14.0625 C 2.300781 -15.144531 2.3125 -15.953125 2.3125 -16.484375 C 2.3125 -17.316406 2.34375 -18.691406 2.40625 -20.609375 C 2.46875 -22.523438 2.601562 -24.660156 2.8125 -27.015625 C 3.019531 -29.367188 3.289062 -31.796875 3.625 -34.296875 C 3.957031 -36.796875 4.394531 -39.078125 4.9375 -41.140625 C 5.476562 -43.203125 6.132812 -44.875 6.90625 -46.15625 C 7.675781 -47.445312 8.582031 -48.070312 9.625 -48.03125 C 10.289062 -48 10.863281 -47.710938 11.34375 -47.171875 C 11.820312 -46.628906 12.21875 -45.929688 12.53125 -45.078125 C 12.84375 -44.222656 13.101562 -43.296875 13.3125 -42.296875 C 13.519531 -41.296875 13.675781 -40.304688 13.78125 -39.328125 C 13.882812 -38.347656 13.945312 -37.441406 13.96875 -36.609375 C 13.988281 -35.773438 14 -35.128906 14 -34.671875 C 14 -33.585938 13.976562 -32.503906 13.9375 -31.421875 C 13.894531 -30.335938 13.832031 -29.253906 13.75 -28.171875 C 14.707031 -29.460938 15.984375 -30.523438 17.578125 -31.359375 C 19.179688 -32.191406 20.796875 -32.609375 22.421875 -32.609375 C 24.503906 -32.609375 26.078125 -32.035156 27.140625 -30.890625 C 28.203125 -29.742188 28.960938 -28.328125 29.421875 -26.640625 C 29.878906 -24.953125 30.128906 -23.160156 30.171875 -21.265625 C 30.210938 -19.367188 30.234375 -17.671875 30.234375 -16.171875 Z M 30.234375 -16.171875 "/></g></g></g><g fill="#2e2e2e" fill-opacity="1"><g transform="translate(257.183985, 303.642931)"><g><path d="M 28.421875 -8.8125 C 28.421875 -8.0625 28.390625 -7.082031 28.328125 -5.875 C 28.265625 -4.664062 28.085938 -3.488281 27.796875 -2.34375 C 27.503906 -1.195312 27.046875 -0.207031 26.421875 0.625 C 25.796875 1.457031 24.921875 1.875 23.796875 1.875 C 22.253906 1.875 21.066406 1.375 20.234375 0.375 C 19.398438 -0.625 19.003906 -1.875 19.046875 -3.375 C 17.710938 -2.207031 16.203125 -1.289062 14.515625 -0.625 C 12.835938 0.0390625 11.125 0.375 9.375 0.375 C 8.164062 0.375 7.019531 0.0820312 5.9375 -0.5 C 4.851562 -1.082031 3.894531 -1.832031 3.0625 -2.75 C 2.226562 -3.664062 1.5625 -4.695312 1.0625 -5.84375 C 0.5625 -6.988281 0.3125 -8.125 0.3125 -9.25 C 0.3125 -11.25 0.925781 -12.992188 2.15625 -14.484375 C 3.382812 -15.984375 4.894531 -17.265625 6.6875 -18.328125 C 8.476562 -19.390625 10.382812 -20.234375 12.40625 -20.859375 C 14.425781 -21.484375 16.222656 -21.898438 17.796875 -22.109375 C 17.796875 -22.316406 17.804688 -22.503906 17.828125 -22.671875 C 17.847656 -22.835938 17.859375 -23.023438 17.859375 -23.234375 C 17.859375 -24.523438 17.503906 -25.566406 16.796875 -26.359375 C 16.097656 -27.148438 15.101562 -27.546875 13.8125 -27.546875 C 12.769531 -27.546875 11.875 -27.367188 11.125 -27.015625 C 10.375 -26.660156 9.664062 -26.265625 9 -25.828125 C 8.332031 -25.390625 7.664062 -24.992188 7 -24.640625 C 6.332031 -24.285156 5.582031 -24.109375 4.75 -24.109375 C 3.832031 -24.109375 3.050781 -24.398438 2.40625 -24.984375 C 1.757812 -25.566406 1.4375 -26.316406 1.4375 -27.234375 C 1.4375 -28.609375 1.84375 -29.859375 2.65625 -30.984375 C 3.46875 -32.109375 4.488281 -33.054688 5.71875 -33.828125 C 6.945312 -34.597656 8.28125 -35.203125 9.71875 -35.640625 C 11.15625 -36.078125 12.476562 -36.296875 13.6875 -36.296875 C 14.8125 -36.296875 15.929688 -36.160156 17.046875 -35.890625 C 18.171875 -35.617188 19.234375 -35.203125 20.234375 -34.640625 C 21.234375 -34.078125 22.140625 -33.390625 22.953125 -32.578125 C 23.765625 -31.765625 24.421875 -30.816406 24.921875 -29.734375 C 25.671875 -28.191406 26.273438 -26.554688 26.734375 -24.828125 C 27.191406 -23.097656 27.546875 -21.328125 27.796875 -19.515625 C 28.046875 -17.703125 28.210938 -15.890625 28.296875 -14.078125 C 28.378906 -12.273438 28.421875 -10.519531 28.421875 -8.8125 Z M 18.421875 -10.8125 L 18.234375 -15.0625 C 18.148438 -15.0625 18.066406 -15.070312 17.984375 -15.09375 C 17.898438 -15.113281 17.816406 -15.125 17.734375 -15.125 C 17.191406 -15.125 16.515625 -14.988281 15.703125 -14.71875 C 14.898438 -14.445312 14.125 -14.070312 13.375 -13.59375 C 12.625 -13.113281 11.988281 -12.582031 11.46875 -12 C 10.945312 -11.414062 10.6875 -10.8125 10.6875 -10.1875 C 10.6875 -9.601562 10.894531 -9.207031 11.3125 -9 C 11.726562 -8.789062 12.207031 -8.6875 12.75 -8.6875 C 13.664062 -8.6875 14.640625 -8.925781 15.671875 -9.40625 C 16.710938 -9.882812 17.628906 -10.351562 18.421875 -10.8125 Z M 18.421875 -10.8125 "/></g></g></g><g fill="#2e2e2e" fill-opacity="1"><g transform="translate(288.761507, 303.642931)"><g><path d="M 16.421875 2.25 C 13.472656 2.25 11.175781 1.863281 9.53125 1.09375 C 7.882812 0.320312 6.65625 -0.769531 5.84375 -2.1875 C 5.03125 -3.601562 4.539062 -5.3125 4.375 -7.3125 C 4.207031 -9.3125 4.125 -11.539062 4.125 -14 C 4.125 -15.945312 4.1875 -17.910156 4.3125 -19.890625 C 4.4375 -21.867188 4.625 -23.984375 4.875 -26.234375 C 4.289062 -26.234375 3.832031 -26.222656 3.5 -26.203125 C 3.164062 -26.179688 2.894531 -26.171875 2.6875 -26.171875 C 1.351562 -26.171875 0.195312 -26.460938 -0.78125 -27.046875 C -1.757812 -27.628906 -2.25 -28.523438 -2.25 -29.734375 C -2.25 -30.484375 -1.96875 -31.148438 -1.40625 -31.734375 C -0.84375 -32.316406 -0.125 -32.816406 0.75 -33.234375 C 1.625 -33.648438 2.570312 -33.984375 3.59375 -34.234375 C 4.613281 -34.484375 5.582031 -34.648438 6.5 -34.734375 C 6.5 -35.898438 6.582031 -37.191406 6.75 -38.609375 C 6.914062 -40.023438 7.21875 -41.347656 7.65625 -42.578125 C 8.09375 -43.804688 8.6875 -44.835938 9.4375 -45.671875 C 10.1875 -46.503906 11.144531 -46.921875 12.3125 -46.921875 C 12.976562 -46.921875 13.570312 -46.722656 14.09375 -46.328125 C 14.613281 -45.929688 15.039062 -45.429688 15.375 -44.828125 C 15.707031 -44.222656 15.953125 -43.546875 16.109375 -42.796875 C 16.273438 -42.046875 16.359375 -41.316406 16.359375 -40.609375 C 16.359375 -39.773438 16.296875 -38.921875 16.171875 -38.046875 C 16.054688 -37.171875 15.832031 -36.085938 15.5 -34.796875 C 16.195312 -34.878906 16.671875 -34.929688 16.921875 -34.953125 C 17.171875 -34.972656 17.398438 -34.984375 17.609375 -34.984375 C 18.316406 -34.984375 19.054688 -34.921875 19.828125 -34.796875 C 20.597656 -34.671875 21.304688 -34.460938 21.953125 -34.171875 C 22.597656 -33.878906 23.128906 -33.492188 23.546875 -33.015625 C 23.960938 -32.535156 24.171875 -31.960938 24.171875 -31.296875 C 24.171875 -30.546875 23.867188 -29.878906 23.265625 -29.296875 C 22.660156 -28.710938 21.898438 -28.210938 20.984375 -27.796875 C 20.066406 -27.378906 19.085938 -27.054688 18.046875 -26.828125 C 17.003906 -26.597656 16.03125 -26.441406 15.125 -26.359375 C 14.875 -24.648438 14.695312 -23.078125 14.59375 -21.640625 C 14.488281 -20.203125 14.375 -18.753906 14.25 -17.296875 C 14.164062 -16.585938 14.09375 -15.867188 14.03125 -15.140625 C 13.96875 -14.421875 13.9375 -13.6875 13.9375 -12.9375 C 13.9375 -12.394531 13.957031 -11.757812 14 -11.03125 C 14.039062 -10.300781 14.1875 -9.601562 14.4375 -8.9375 C 14.6875 -8.269531 15.078125 -7.695312 15.609375 -7.21875 C 16.148438 -6.738281 16.898438 -6.5 17.859375 -6.5 C 18.441406 -6.5 19.046875 -6.550781 19.671875 -6.65625 C 20.296875 -6.757812 20.921875 -6.8125 21.546875 -6.8125 C 22.628906 -6.8125 23.410156 -6.4375 23.890625 -5.6875 C 24.367188 -4.9375 24.609375 -3.976562 24.609375 -2.8125 C 24.609375 -1.9375 24.347656 -1.175781 23.828125 -0.53125 C 23.304688 0.113281 22.648438 0.632812 21.859375 1.03125 C 21.066406 1.425781 20.179688 1.726562 19.203125 1.9375 C 18.222656 2.144531 17.296875 2.25 16.421875 2.25 Z M 16.421875 2.25 "/></g></g></g></svg>