<svg xmlns="http://www.w3.org/2000/svg" width="500" viewBox="0 0 375 375" height="500" version="1.0"><defs><clipPath id="prefix__a"><path d="M13 57h349v261.336H13zm0 0"/></clipPath></defs><g clip-path="url(#prefix__a)"><path fill="#f89e1d" d="M336.914 57.395c-99.543 3.82-222.406 25.257-298.637 45.359-16.715 4.41-28.027 12.039-24.054 26.117C24.336 165.81 34.457 202.742 44.57 239.68c3.977 14.082 17.575 25.203 30.383 25.949 4.067.226 8.129.527 12.2.879-1.618 17.613-6.551 39.84-20.548 51.785 0 0 54.926-24.805 80.676-43.106 50.989 9.555 101.977 22.715 152.957 24.665 12.809.515 26.41-17.082 30.38-38.13 10.116-55.406 20.237-110.808 30.347-166.214 3.98-21.043-6.785-38.797-24.05-38.113"/></g><path fill="#fff" d="M153.5 172.898c0 10.028-8.14 18.165-18.188 18.165-10.035 0-18.18-8.137-18.18-18.165 0-10.027 8.145-18.156 18.18-18.156 10.047 0 18.188 8.13 18.188 18.156m52.293 0c0 10.028-8.14 18.165-18.18 18.165-10.043 0-18.183-8.137-18.183-18.165 0-10.027 8.14-18.156 18.183-18.156 10.04 0 18.18 8.13 18.18 18.156m52.293 0c0 10.028-8.14 18.165-18.18 18.165-10.043 0-18.183-8.137-18.183-18.165 0-10.027 8.14-18.156 18.183-18.156 10.04 0 18.18 8.13 18.18 18.156"/><path fill="#fbc519" d="M96.016 201.031c-.91-28.46 7.707-52.386 31.816-69 41.227-28.414 91.418-33.558 140.16-31.054 15.594.796 31.176 2.23 46.778 2.804 6.308.227 12.625-.37 18.933.04 6.762.445 11.629 2.011 12.235-6.692.414-6.02.039-13.422-2.36-18.969-3.566-8.265-11.183-13.996-20.441-13.644-92.88 3.558-207.512 23.562-278.637 42.324-15.602 4.117-26.156 11.226-22.445 24.367 9.433 34.453 18.875 68.926 28.312 103.387 3.711 13.14 16.403 23.508 28.352 24.21 3.793.208 7.586.493 11.379.821-1.504 16.434 6.715-33.723 5.918-58.594"/></svg>